<?xml version="1.0" encoding="UTF-8" standalone="no"?>
<!DOCTYPE svg PUBLIC "-//W3C//DTD SVG 1.1//EN"
 "http://www.w3.org/Graphics/SVG/1.1/DTD/svg11.dtd">
<!-- Generated by graphviz version 2.40.1 (20161225.0304)
 -->
<!-- Title: %3 Pages: 1 -->
<svg width="124pt" height="260pt"
 viewBox="0.00 0.00 124.00 260.00" xmlns="http://www.w3.org/2000/svg" xmlns:xlink="http://www.w3.org/1999/xlink">
<g id="graph0" class="graph" transform="scale(1 1) rotate(0) translate(4 256)">
<title>%3</title>
<polygon fill="#ffffff" stroke="transparent" points="-4,4 -4,-256 120,-256 120,4 -4,4"/>
<!-- r0 -->
<g id="node1" class="node">
<title>r0</title>
<ellipse fill="none" stroke="#000000" cx="58" cy="-234" rx="18" ry="18"/>
<text text-anchor="middle" x="58" y="-230.3" font-family="Times,serif" font-size="14.00" fill="#000000">0</text>
</g>
<!-- r1 -->
<g id="node2" class="node">
<title>r1</title>
<ellipse fill="none" stroke="#000000" cx="18" cy="-162" rx="18" ry="18"/>
<text text-anchor="middle" x="18" y="-158.3" font-family="Times,serif" font-size="14.00" fill="#000000">2</text>
</g>
<!-- r0&#45;&gt;r1 -->
<g id="edge4" class="edge">
<title>r0&#45;&gt;r1</title>
<path fill="none" stroke="#000000" d="M49.1227,-218.0209C44.0476,-208.8857 37.5715,-197.2286 31.8423,-186.9162"/>
<polygon fill="#000000" stroke="#000000" points="34.7685,-184.9763 26.8525,-177.9345 28.6494,-188.3758 34.7685,-184.9763"/>
</g>
<!-- i0 -->
<!-- r0&#45;&gt;i0 -->
<!-- r2 -->
<g id="node4" class="node">
<title>r2</title>
<ellipse fill="none" stroke="#000000" cx="98" cy="-162" rx="18" ry="18"/>
<text text-anchor="middle" x="98" y="-158.3" font-family="Times,serif" font-size="14.00" fill="#000000">2</text>
</g>
<!-- r0&#45;&gt;r2 -->
<g id="edge5" class="edge">
<title>r0&#45;&gt;r2</title>
<path fill="none" stroke="#000000" d="M66.8773,-218.0209C71.9524,-208.8857 78.4285,-197.2286 84.1577,-186.9162"/>
<polygon fill="#000000" stroke="#000000" points="87.3506,-188.3758 89.1475,-177.9345 81.2315,-184.9763 87.3506,-188.3758"/>
</g>
<!-- r1&#45;&gt;i0 -->
<!-- r3 -->
<g id="node5" class="node">
<title>r3</title>
<ellipse fill="none" stroke="#000000" cx="58" cy="-90" rx="18" ry="18"/>
<text text-anchor="middle" x="58" y="-86.3" font-family="Times,serif" font-size="14.00" fill="#000000">2</text>
</g>
<!-- r1&#45;&gt;r3 -->
<g id="edge11" class="edge">
<title>r1&#45;&gt;r3</title>
<path fill="none" stroke="#000000" stroke-dasharray="1,5" d="M26.8773,-146.0209C31.9524,-136.8857 38.4285,-125.2286 44.1577,-114.9162"/>
<polygon fill="#000000" stroke="#000000" points="47.3506,-116.3758 49.1475,-105.9345 41.2315,-112.9763 47.3506,-116.3758"/>
</g>
<!-- i0&#45;&gt;r2 -->
<!-- r2&#45;&gt;r3 -->
<g id="edge12" class="edge">
<title>r2&#45;&gt;r3</title>
<path fill="none" stroke="#000000" stroke-dasharray="1,5" d="M89.1227,-146.0209C84.0476,-136.8857 77.5715,-125.2286 71.8423,-114.9162"/>
<polygon fill="#000000" stroke="#000000" points="74.7685,-112.9763 66.8525,-105.9345 68.6494,-116.3758 74.7685,-112.9763"/>
</g>
<!-- r4 -->
<g id="node6" class="node">
<title>r4</title>
<ellipse fill="none" stroke="#000000" cx="18" cy="-18" rx="18" ry="18"/>
<text text-anchor="middle" x="18" y="-14.3" font-family="Times,serif" font-size="14.00" fill="#000000">2</text>
</g>
<!-- r3&#45;&gt;r4 -->
<g id="edge9" class="edge">
<title>r3&#45;&gt;r4</title>
<path fill="none" stroke="#000000" d="M49.1227,-74.0209C44.0476,-64.8857 37.5715,-53.2286 31.8423,-42.9162"/>
<polygon fill="#000000" stroke="#000000" points="34.7685,-40.9763 26.8525,-33.9345 28.6494,-44.3758 34.7685,-40.9763"/>
</g>
<!-- i3 -->
<!-- r3&#45;&gt;i3 -->
<!-- r5 -->
<g id="node8" class="node">
<title>r5</title>
<ellipse fill="none" stroke="#000000" cx="98" cy="-18" rx="18" ry="18"/>
<text text-anchor="middle" x="98" y="-14.3" font-family="Times,serif" font-size="14.00" fill="#000000">2</text>
</g>
<!-- r3&#45;&gt;r5 -->
<g id="edge10" class="edge">
<title>r3&#45;&gt;r5</title>
<path fill="none" stroke="#000000" d="M66.8773,-74.0209C71.9524,-64.8857 78.4285,-53.2286 84.1577,-42.9162"/>
<polygon fill="#000000" stroke="#000000" points="87.3506,-44.3758 89.1475,-33.9345 81.2315,-40.9763 87.3506,-44.3758"/>
</g>
<!-- r4&#45;&gt;i3 -->
<!-- i3&#45;&gt;r5 -->
</g>
</svg>
